HIERARCHY
ROOT Hips
{
	OFFSET 0.000000 35.082581 0.000000
	CHANNELS 6 Xposition Yposition Zposition Xrotation Yrotation Zrotation 
	JOINT Spine
	{
		OFFSET 0.000000 6.876099 0.125700
		CHANNELS 3 Xrotation Yrotation Zrotation
		JOINT Spine1
		{
			OFFSET 0.000000 5.730043 0.104720
			CHANNELS 3 Xrotation Yrotation Zrotation
			JOINT Spine1_split
			{
				OFFSET 0.000000 5.730043 0.104720
				CHANNELS 3 Xrotation Yrotation Zrotation
				JOINT Spine2
				{
					OFFSET 0.000000 5.730043 0.104720
					CHANNELS 3 Xrotation Yrotation Zrotation
					JOINT Neck
					{
						OFFSET 0.000000 10.314075 0.188496
						CHANNELS 3 Xrotation Yrotation Zrotation
						JOINT Head
						{
							OFFSET 0.000000 7.643700 -2.377400
							CHANNELS 3 Xrotation Yrotation Zrotation
							JOINT HeadTop_End
							{
								OFFSET 0.000000 43.788605 -13.619600
								CHANNELS 3 Xrotation Yrotation Zrotation
								End Site
								{
									OFFSET 0.000000 0.000000 0.000000
								}
							}
						}
					}
					JOINT LeftShoulder
					{
						OFFSET 2.196100 4.412489 0.087492
						CHANNELS 3 Xrotation Yrotation Zrotation
						JOINT LeftShoulder_split
						{
							OFFSET 2.196100 4.412489 0.087492
							CHANNELS 3 Xrotation Yrotation Zrotation
							JOINT LeftArm
							{
								OFFSET 8.771219 -2.981674 -0.026999
								CHANNELS 3 Xrotation Yrotation Zrotation
								JOINT LeftForeArm
								{
									OFFSET 8.512804 0.000000 -0.000000
									CHANNELS 3 Xrotation Yrotation Zrotation
									JOINT LeftHand
									{
										OFFSET 18.484802 0.000000 -0.000000
										CHANNELS 3 Xrotation Yrotation Zrotation
										JOINT LeftHandThumb1
										{
											OFFSET 2.499420 -1.158070 2.653252
											CHANNELS 3 Xrotation Yrotation Zrotation
											JOINT LeftHandThumb2
											{
												OFFSET 2.370079 -1.368366 1.368366
												CHANNELS 3 Xrotation Yrotation Zrotation
												JOINT LeftHandThumb3
												{
													OFFSET 2.676727 -1.545410 1.545409
													CHANNELS 3 Xrotation Yrotation Zrotation
													JOINT LeftHandThumb4
													{
														OFFSET 1.692226 -0.977005 0.977007
														CHANNELS 3 Xrotation Yrotation Zrotation
														End Site
														{
															OFFSET 0.000000 0.000000 0.000000
														}
													}
												}
											}
										}
										JOINT LeftHandIndex1
										{
											OFFSET 7.924831 -0.457527 2.345128
											CHANNELS 3 Xrotation Yrotation Zrotation
											JOINT LeftHandIndex2
											{
												OFFSET 3.643303 0.000000 0.000000
												CHANNELS 3 Xrotation Yrotation Zrotation
												JOINT LeftHandIndex3
												{
													OFFSET 3.810799 0.000000 0.000000
													CHANNELS 3 Xrotation Yrotation Zrotation
													JOINT LeftHandIndex4
													{
														OFFSET 2.403702 0.000000 0.000000
														CHANNELS 3 Xrotation Yrotation Zrotation
														End Site
														{
															OFFSET 0.000000 0.000000 0.000000
														}
													}
												}
											}
										}
										JOINT LeftHandMiddle1
										{
											OFFSET 8.563995 0.000000 -0.000000
											CHANNELS 3 Xrotation Yrotation Zrotation
											JOINT LeftHandMiddle2
											{
												OFFSET 3.861618 0.000000 0.000000
												CHANNELS 3 Xrotation Yrotation Zrotation
												JOINT LeftHandMiddle3
												{
													OFFSET 3.701603 0.000000 0.000000
													CHANNELS 3 Xrotation Yrotation Zrotation
													JOINT LeftHandMiddle4
													{
														OFFSET 2.322544 0.000000 0.000000
														CHANNELS 3 Xrotation Yrotation Zrotation
														End Site
														{
															OFFSET 0.000000 0.000000 0.000000
														}
													}
												}
											}
										}
										JOINT LeftHandRing1
										{
											OFFSET 8.426460 -0.424637 -3.286992
											CHANNELS 3 Xrotation Yrotation Zrotation
											JOINT LeftHandRing2
											{
												OFFSET 3.126408 0.000000 0.000000
												CHANNELS 3 Xrotation Yrotation Zrotation
												JOINT LeftHandRing3
												{
													OFFSET 3.085026 0.000000 0.000000
													CHANNELS 3 Xrotation Yrotation Zrotation
													JOINT LeftHandRing4
													{
														OFFSET 1.644005 0.000000 0.000000
														CHANNELS 3 Xrotation Yrotation Zrotation
														End Site
														{
															OFFSET 0.000000 0.000000 0.000000
														}
													}
												}
											}
										}
									}
								}
							}
						}
					}
					JOINT RightShoulder
					{
						OFFSET -2.196100 4.412496 0.070690
						CHANNELS 3 Xrotation Yrotation Zrotation
						JOINT RightShoulder_split
						{
							OFFSET -2.196100 4.412496 0.070690
							CHANNELS 3 Xrotation Yrotation Zrotation
							JOINT RightArm
							{
								OFFSET -8.771282 -2.981682 -0.094208
								CHANNELS 3 Xrotation Yrotation Zrotation
								JOINT RightForeArm
								{
									OFFSET -8.494598 0.000000 0.000000
									CHANNELS 3 Xrotation Yrotation Zrotation
									JOINT RightHand
									{
										OFFSET -18.483803 0.000000 0.000001
										CHANNELS 3 Xrotation Yrotation Zrotation
										JOINT RightHandThumb1
										{
											OFFSET -2.527351 -1.008072 2.575253
											CHANNELS 3 Xrotation Yrotation Zrotation
											JOINT RightHandThumb2
											{
												OFFSET -2.321518 -1.340328 1.340329
												CHANNELS 3 Xrotation Yrotation Zrotation
												JOINT RightHandThumb3
												{
													OFFSET -2.657753 -1.534454 1.534455
													CHANNELS 3 Xrotation Yrotation Zrotation
													JOINT RightHandThumb4
													{
														OFFSET -1.807510 -1.043568 1.043567
														CHANNELS 3 Xrotation Yrotation Zrotation
														End Site
														{
															OFFSET 0.000000 0.000000 0.000000
														}
													}
												}
											}
										}
										JOINT RightHandIndex1
										{
											OFFSET -8.811420 0.015533 2.887987
											CHANNELS 3 Xrotation Yrotation Zrotation
											JOINT RightHandIndex2
											{
												OFFSET -3.537502 0.000000 0.000000
												CHANNELS 3 Xrotation Yrotation Zrotation
												JOINT RightHandIndex3
												{
													OFFSET -3.356201 0.000000 0.000000
													CHANNELS 3 Xrotation Yrotation Zrotation
													JOINT RightHandIndex4
													{
														OFFSET -1.933098 0.000000 0.000000
														CHANNELS 3 Xrotation Yrotation Zrotation
														End Site
														{
															OFFSET 0.000000 0.000000 0.000000
														}
													}
												}
											}
										}
										JOINT RightHandMiddle1
										{
											OFFSET -8.178135 0.000000 0.000000
											CHANNELS 3 Xrotation Yrotation Zrotation
											JOINT RightHandMiddle2
											{
												OFFSET -3.901302 0.000000 0.000000
												CHANNELS 3 Xrotation Yrotation Zrotation
												JOINT RightHandMiddle3
												{
													OFFSET -3.909599 0.000000 0.000000
													CHANNELS 3 Xrotation Yrotation Zrotation
													JOINT RightHandMiddle4
													{
														OFFSET -2.376003 0.000000 0.000000
														CHANNELS 3 Xrotation Yrotation Zrotation
														End Site
														{
															OFFSET 0.000000 0.000000 0.000000
														}
													}
												}
											}
										}
										JOINT RightHandRing1
										{
											OFFSET -7.559013 0.014137 -2.865403
											CHANNELS 3 Xrotation Yrotation Zrotation
											JOINT RightHandRing2
											{
												OFFSET -3.449306 0.000000 0.000000
												CHANNELS 3 Xrotation Yrotation Zrotation
												JOINT RightHandRing3
												{
													OFFSET -3.362106 0.000000 0.000000
													CHANNELS 3 Xrotation Yrotation Zrotation
													JOINT RightHandRing4
													{
														OFFSET -2.076401 0.000000 0.000000
														CHANNELS 3 Xrotation Yrotation Zrotation
														End Site
														{
															OFFSET 0.000000 0.000000 0.000000
														}
													}
												}
											}
										}
									}
								}
							}
						}
					}
				}
			}
		}
	}
	JOINT LeftUpLeg
	{
		OFFSET 10.205400 -3.823500 0.155100
		CHANNELS 3 Xrotation Yrotation Zrotation
		JOINT LeftLeg
		{
			OFFSET 0.708757 -12.982077 0.567790
			CHANNELS 3 Xrotation Yrotation Zrotation
			JOINT LeftFoot
			{
				OFFSET -0.708756 -10.717838 -2.184338
				CHANNELS 3 Xrotation Yrotation Zrotation
				JOINT LeftToeBase
				{
					OFFSET 0.108149 -7.191104 7.560241
					CHANNELS 3 Xrotation Yrotation Zrotation
					JOINT LeftToe_End
					{
						OFFSET 0.070230 0.081724 4.490308
						CHANNELS 3 Xrotation Yrotation Zrotation
						End Site
						{
							OFFSET 0.000000 0.000000 0.000000
						}
					}
				}
			}
		}
	}
	JOINT RightUpLeg
	{
		OFFSET -10.205400 -3.823500 0.005500
		CHANNELS 3 Xrotation Yrotation Zrotation
		JOINT RightLeg
		{
			OFFSET -0.708756 -12.982134 0.610632
			CHANNELS 3 Xrotation Yrotation Zrotation
			JOINT RightFoot
			{
				OFFSET 0.708754 -10.717769 -1.945823
				CHANNELS 3 Xrotation Yrotation Zrotation
				JOINT RightToeBase
				{
					OFFSET -0.108140 -7.191069 7.372968
					CHANNELS 3 Xrotation Yrotation Zrotation
					JOINT RightToe_End
					{
						OFFSET -0.070227 0.081735 4.479403
						CHANNELS 3 Xrotation Yrotation Zrotation
						End Site
						{
							OFFSET 0.000000 0.000000 0.000000
						}
					}
				}
			}
		}
	}
}
MOTION
Frames: 4
Frame Time: 0.016667
2.583022 33.914677 1.981668 -5.361544 -7.561085 6.572387 0.579336 0.817800 -3.775688 0.947294 2.037201 -4.377106 0.000000 0.000000 0.000000 0.968933 2.043659 -4.365421 2.884317 1.135687 4.005909 7.888284 9.350190 8.465892 0.000001 -0.000001 0.000001 1.058071 -0.340535 -4.891491 0.000000 0.000000 0.000000 -16.372114 12.814418 -32.934011 -0.000005 -24.507081 -0.000003 42.987595 -10.562043 -4.600033 -1.540050 3.690171 6.142341 3.946754 7.971413 0.752862 -0.575599 1.586255 2.542375 -0.000003 -0.000001 -0.000002 -0.000008 0.000014 -0.000008 0.000008 -0.000015 -0.000005 -0.000000 0.000007 0.000003 0.000002 0.000000 -0.000001 -0.000010 -0.001919 0.015964 0.000002 0.001925 -0.015981 0.000009 -0.000007 0.000006 0.000000 0.000002 0.000001 -0.000010 0.000013 -0.000004 -0.000002 0.000002 -0.000021 0.000006 -0.000005 -0.000001 0.000001 -0.000002 0.000001 0.199129 -5.464826 5.846358 0.000000 0.000000 0.000000 -40.201223 28.677461 7.199780 0.000003 4.457089 -0.000005 36.569027 21.327752 -11.047081 -1.908779 1.147433 -8.502712 4.645045 -8.656818 -0.231314 -1.269830 0.126064 -2.098687 -0.000001 0.000002 -0.000000 0.007138 0.315394 -2.588925 -0.000008 0.000000 0.000005 0.000000 0.000003 0.000005 -0.000000 0.000001 -0.000001 0.007139 0.315383 -2.588924 -0.000006 0.000010 0.000003 0.000001 -0.000001 0.000013 0.000000 -0.000004 0.000000 0.007132 0.315384 -2.588922 0.000008 -0.000001 0.000014 0.000003 0.000004 -0.000002 0.000000 0.000002 -0.000001 -26.532433 7.889009 7.743356 23.234792 9.962441 1.204950 27.081403 8.845504 3.071868 -8.064487 0.077928 -2.268006 0.000001 0.000002 0.000001 -3.001716 -7.679777 17.487595 24.667785 -12.259352 0.137230 -21.096260 -12.157965 -23.079745 -3.611779 -0.000018 0.000002 0.000000 0.000002 -0.000000 
2.361574 33.925529 2.558358 -5.515117 -10.448948 7.102910 0.709943 0.989825 -4.048398 1.150023 2.492871 -4.561969 0.000000 0.000000 0.000000 1.175539 2.502168 -4.546987 2.728370 1.302014 3.879432 7.459735 10.036895 8.266647 0.000000 0.000000 -0.000000 0.919755 0.306316 -3.869181 0.000000 0.000000 0.000000 -17.993281 11.628166 -29.784153 0.000003 -26.012427 0.000027 42.448820 -8.511059 -6.736298 -1.540046 3.690173 6.142341 3.946755 7.971409 0.752856 -0.575603 1.586255 2.542369 -0.000000 -0.000002 -0.000004 -0.000011 0.000016 -0.000011 0.000006 -0.000016 -0.000003 -0.000002 0.000007 -0.000002 0.000000 -0.000000 -0.000001 -0.000013 -0.001915 0.015962 0.000002 0.001930 -0.015980 0.000009 -0.000001 0.000003 0.000002 0.000001 -0.000001 -0.000013 0.000015 -0.000006 0.000000 0.000003 -0.000021 0.000007 -0.000001 -0.000001 0.000002 0.000001 0.000002 0.206930 -5.347467 5.805427 0.000000 0.000000 0.000000 -41.452401 31.404096 7.845464 0.000011 4.254792 -0.000008 36.426666 17.698530 -11.018027 -1.941000 0.213043 -8.122619 4.645044 -8.656820 -0.231316 -1.269830 0.126059 -2.098690 -0.000000 -0.000001 -0.000004 0.004581 0.253155 -2.077735 -0.000011 0.000008 0.000007 0.000001 0.000005 0.000009 -0.000001 -0.000000 -0.000001 0.004585 0.253156 -2.077725 -0.000004 0.000012 -0.000001 -0.000000 -0.000001 0.000012 -0.000002 -0.000003 0.000002 0.004583 0.253160 -2.077741 0.000006 0.000000 0.000016 -0.000000 0.000006 -0.000001 0.000000 0.000001 -0.000001 -28.187260 7.921108 6.153801 23.088915 10.052298 1.300488 28.424809 7.610654 0.656027 -4.220414 0.000015 -0.000006 0.000002 -0.000000 0.000000 -1.662461 -7.438715 16.923204 26.210439 -12.170292 0.137402 -22.587304 -10.768624 -21.547464 -3.850470 0.000030 0.000001 -0.000000 0.000001 0.000000 
2.104625 33.925186 3.101617 -5.671901 -13.341677 7.578716 0.840316 1.171562 -4.308763 1.350766 2.961710 -4.730878 0.000000 0.000000 0.000000 1.379869 2.974014 -4.712207 2.584065 1.463159 3.751658 7.038276 10.697001 8.064929 0.000001 0.000000 -0.000001 0.757067 0.956893 -2.838417 0.000000 0.000000 0.000000 -19.446302 10.332249 -26.706627 0.000012 -27.039592 -0.000011 42.214131 -6.536533 -9.326113 -1.540051 3.690165 6.142337 3.946754 7.971404 0.752854 -0.575593 1.586252 2.542375 0.000000 -0.000005 -0.000002 -0.000012 0.000013 -0.000011 0.000007 -0.000013 -0.000003 0.000000 0.000008 0.000000 -0.000001 -0.000001 0.000001 -0.000014 -0.001919 0.015961 0.000000 0.001931 -0.015978 0.000006 -0.000009 0.000006 0.000001 -0.000002 0.000002 -0.000012 0.000012 -0.000007 0.000002 0.000003 -0.000021 0.000004 -0.000004 0.000002 -0.000000 -0.000001 -0.000002 0.212553 -5.230996 5.754187 0.000000 0.000000 0.000000 -42.739509 34.146506 8.566019 -0.000007 4.063312 -0.000019 36.307903 13.991131 -11.057198 -1.951463 -0.743594 -7.734738 4.645042 -8.656817 -0.231317 -1.269830 0.126067 -2.098684 0.000001 0.000002 -0.000000 0.002568 0.189412 -1.554387 -0.000009 0.000003 0.000004 0.000001 0.000011 0.000005 0.000000 -0.000001 -0.000003 0.002562 0.189418 -1.554391 -0.000004 0.000008 0.000003 -0.000000 0.000005 0.000015 -0.000002 0.000001 0.000001 0.002563 0.189419 -1.554393 0.000003 0.000005 0.000017 0.000002 0.000005 -0.000002 0.000000 0.000002 -0.000002 -29.635638 8.126163 4.366482 22.881200 10.252552 1.429461 29.835947 6.594549 -1.652581 -1.953747 -0.000001 0.000000 0.000001 0.000000 -0.000000 -0.303013 -7.245211 16.372225 27.733937 -12.069549 0.078566 -24.061076 -9.462719 -19.958735 -4.090696 0.000038 0.000006 -0.000000 0.000003 -0.000000 
1.810251 33.917648 3.604377 -5.843283 -16.183799 7.976129 0.971699 1.370544 -4.549281 1.552683 3.454287 -4.875777 0.000000 0.000000 0.000000 1.585065 3.469685 -4.853023 2.463897 1.609705 3.624302 6.649701 11.284549 7.868931 -0.000000 0.000000 -0.000000 0.574226 1.603293 -1.816297 0.000000 0.000000 0.000000 -20.697802 9.000533 -23.723501 -0.000007 -27.489792 -0.000001 42.273011 -4.912431 -12.211374 -1.540044 3.690164 6.142338 3.946758 7.971409 0.752852 -0.575599 1.586252 2.542375 -0.000002 0.000006 0.000002 -0.000012 0.000012 -0.000013 0.000004 -0.000010 -0.000007 -0.000001 0.000006 0.000002 0.000000 -0.000001 -0.000001 -0.000011 -0.001923 0.015959 0.000002 0.001931 -0.015981 0.000008 -0.000006 0.000006 0.000001 0.000000 0.000002 -0.000012 0.000010 -0.000008 -0.000000 0.000001 -0.000015 0.000008 -0.000008 0.000002 0.000000 0.000002 -0.000001 0.215351 -5.122699 5.672845 0.000000 0.000000 0.000000 -43.983990 36.850127 9.221158 0.000006 3.892991 -0.000001 35.960656 10.271122 -10.808908 -1.940601 -1.643847 -7.370402 4.645044 -8.656817 -0.231314 -1.269830 0.126061 -2.098684 -0.000000 0.000001 -0.000002 0.001198 0.129384 -1.061771 -0.000005 0.000000 0.000002 0.000001 0.000004 0.000006 -0.000000 0.000002 -0.000001 0.001187 0.129392 -1.061773 -0.000005 0.000009 0.000004 0.000001 -0.000000 0.000012 0.000001 -0.000001 -0.000002 0.001192 0.129383 -1.061764 0.000003 0.000000 0.000014 0.000000 0.000008 -0.000003 0.000000 0.000004 -0.000002 -30.937096 8.493417 2.389136 22.654329 10.565480 1.587031 31.355810 5.916474 -3.802257 -0.678852 -0.000004 -0.000001 0.000001 -0.000000 0.000000 1.157645 -7.086429 15.860396 29.047831 -11.953477 0.010677 -25.410945 -8.256313 -18.404966 -4.246981 0.000038 0.000003 0.000000 -0.000001 0.000000 
